<svg xmlns="http://www.w3.org/2000/svg" version="1.1" xmlns:xlink="http://www.w3.org/1999/xlink" xmlns:svgjs="http://svgjs.com/svgjs" width="700" height="700"><svg version="1.1" id="SvgjsSvg1000" xmlns="http://www.w3.org/2000/svg" xmlns:xlink="http://www.w3.org/1999/xlink" x="0px" y="0px" viewBox="0 0 700 700" style="enable-background:new 0 0 700 700;" xml:space="preserve">
<g>
	<path d="M602,221.2C600.5,152.9,544.7,98,476,98H224c-1.6,0-3.2,0.1-4.8,0.1c-66.4,2.5-119.7,56.4-121.1,123.1H98V532h148.4V252
		H280v280h233.8v-5.6h-32.2V380.8h114.8v145.6h-32.2v5.6l37.8,0L602,221.2L602,221.2z M224,103.6c21.2,0,41.9,5.6,60.2,16.2
		c36.3,20.9,59.2,59.6,60.1,101.4H103.7C105.1,156.1,158.5,103.6,224,103.6L224,103.6z M162.4,526.4h-58.8V380.8h58.8L162.4,526.4z
		 M240.8,340.8h-67.2v5.6h67.2V432h-67.2v5.6h67.2v88.8H168V252h72.8V340.8z M344.4,526.4h-58.8V380.8h58.8V526.4z M344.4,375.2
		h-58.8V246.4H162.4v128.8h-58.8V226.8h240.8L344.4,375.2z M287,114.9c-8-4.6-16.7-8.5-25.8-11.3h126
		c50.6,15.6,87.5,62.2,88.7,117.6h-126C349,175.7,324,136.2,287,114.9L287,114.9z M476,526.4H350V380.8h126V526.4z M476,375.2H350
		V226.8h126V375.2z M481.5,221.2c-1.1-52.5-33-97.5-78.4-117.6l72.9,0c65.5,0,118.9,52.5,120.3,117.6L481.5,221.2z M596.4,375.2
		H481.6V226.8h114.8V375.2z M205.4,381.1V375h22.4v6.2H205.4z M542.2,483.4c2.4-5.4,7.1-19.6-2.3-32.5c-10.8-14.7-5.5-25.3,0.7-31.5
		l2-2l-4-4l-2,2c-10.9,10.9-11.3,25-1.3,38.8c9.5,13,1.2,28.1,0.8,28.7l-0.3,0.4h-25v5.6l8.4,37.4v5.6h39.2v-5.6l8.4-37.4v-5.6
		l-24.7,0L542.2,483.4z M560,494.6l-2.9,13.1l-3,18.6h-30.2l-2.9-18.6l-3-13.1l-1.3-5.6h44.5L560,494.6z M530.1,473.7
		c3.8,0,6.8-3.1,6.8-6.8s-3.1-6.8-6.8-6.8s-6.8,3.1-6.8,6.8S526.3,473.7,530.1,473.7z M530.1,464.1c1.6,0,2.8,1.3,2.8,2.8
		c0,1.6-1.2,2.8-2.8,2.8c-1.5,0-2.8-1.2-2.8-2.8C527.3,465.4,528.6,464.1,530.1,464.1z M547.3,437.7c-3.8,0-6.8,3.1-6.8,6.8
		s3.1,6.8,6.8,6.8c3.8,0,6.8-3.1,6.8-6.8C554.1,440.8,551,437.7,547.3,437.7z M547.3,447.3c-1.5,0-2.8-1.2-2.8-2.8
		c0-1.5,1.3-2.8,2.8-2.8c1.6,0,2.8,1.3,2.8,2.8C550.1,446.1,548.9,447.3,547.3,447.3z M518.3,438.2c3.8,0,6.8-3.1,6.8-6.8
		s-3.1-6.8-6.8-6.8s-6.8,3.1-6.8,6.8S514.5,438.2,518.3,438.2z M518.3,428.6c1.5,0,2.8,1.2,2.8,2.8c0,1.6-1.3,2.8-2.8,2.8
		c-1.6,0-2.8-1.2-2.8-2.8C515.5,429.8,516.7,428.6,518.3,428.6z M548.2,415.3c3.8,0,6.8-3.1,6.8-6.8s-3.1-6.8-6.8-6.8
		c-3.8,0-6.8,3.1-6.8,6.8S544.5,415.3,548.2,415.3z M548.2,405.7c1.5,0,2.8,1.2,2.8,2.8c0,1.6-1.3,2.8-2.8,2.8
		c-1.6,0-2.8-1.2-2.8-2.8C545.4,407,546.7,405.7,548.2,405.7z"></path>
</g>
</svg><style>@media (prefers-color-scheme: light) { :root { filter: none; } }
</style></svg>