<?xml version="1.0" encoding="utf-8"?>
<!-- Generator: Adobe Illustrator 22.1.0, SVG Export Plug-In . SVG Version: 6.00 Build 0)  -->
<svg version="1.1" id="Capa_1" xmlns="http://www.w3.org/2000/svg" xmlns:xlink="http://www.w3.org/1999/xlink" x="0px" y="0px"
	 viewBox="0 0 524 476.4" style="enable-background:new 0 0 524 476.4;" xml:space="preserve">
<style type="text/css">
	.st0{fill:#FFFFFF;}
</style>
<g>
	<path class="st0" d="M509.1,151.5c-1.4-66-55.4-119.2-122-119.2H143.5c-1.7,0-3,0-4.7,0C74.5,34.8,23,86.9,21.6,151.5l0,0v300.7
		h143.6V181.1h32.4v270.8h226.2v-5.5h-31V305.8h111.1v140.8h-31v5.5h36.6L509.1,151.5L509.1,151.5z M143.5,37.8
		c20.5,0,40.5,5.5,58.2,15.8c35.2,20.2,57.4,57.6,58.2,98.1H27.1C28.5,88.5,80.1,37.8,143.5,37.8L143.5,37.8z M84,446.6H27.1V305.8
		H84V446.6z M159.6,267H94.8v5.5h65.1v82.9H94.8v5.5h65.1v85.9H89.2V181.1h70.4V267z M260,446.6h-56.8V305.8H260V446.6z M260,300.3
		h-56.8V175.9H84v124.4H27.1V157H260V300.3z M204.5,48.6c-7.8-4.4-16.1-8.3-24.9-10.8h122c49.1,15,84.5,60.1,85.9,113.6h-122
		C264.4,107.4,240.3,69.1,204.5,48.6L204.5,48.6z M387.2,446.6h-122V305.8h122V446.6z M387.2,300.3h-122V157h122V300.3z
		 M392.4,151.5c-1.1-50.7-31.9-94.2-75.9-113.6h70.4c63.5,0,115,50.7,116.4,113.6H392.4z M503.6,300.3H392.4V157h111.1V300.3z
		 M125.5,306.1v-5.8h21.6v6.1L125.5,306.1L125.5,306.1z M451.2,405.1c2.2-5.3,6.9-18.8-2.2-31.3c-10.5-14.1-5.3-24.4,0.6-30.5
		l1.9-1.9l-3.9-3.9l-1.9,1.9c-10.5,10.5-10.8,24.1-1.4,37.4c9.1,12.5,1.1,27.2,0.8,27.7l-0.3,0.3h-24.1v5.5l8,36.3v5.5h38v-5.5
		l8-36.3v-5.5L451.2,405.1L451.2,405.1z M468.4,415.9l-2.8,12.7l-2.8,18h-29.1l-2.8-18l-2.8-12.7l-1.4-5.5h43L468.4,415.9z
		 M439.6,395.6c3.6,0,6.7-3,6.7-6.7s-3-6.7-6.7-6.7s-6.7,3-6.7,6.7C432.9,392.6,436,395.6,439.6,395.6z M439.6,386.5
		c1.7,0,2.8,1.4,2.8,2.8c0,1.7-1.1,2.8-2.8,2.8c-1.4,0-2.8-1.1-2.8-2.8S438.2,386.5,439.6,386.5z M456.2,360.7c-3.6,0-6.7,3-6.7,6.7
		s3,6.7,6.7,6.7c3.6,0,6.7-3,6.7-6.7C462.8,363.8,459.8,360.7,456.2,360.7z M456.2,370.1c-1.4,0-2.8-1.1-2.8-2.8
		c0-1.4,1.4-2.8,2.8-2.8c1.7,0,2.8,1.4,2.8,2.8C459,369,457.9,370.1,456.2,370.1z M428.2,361.3c3.6,0,6.7-3,6.7-6.7
		c0-3.6-3-6.7-6.7-6.7s-6.7,3-6.7,6.7S424.6,361.3,428.2,361.3z M428.2,352.1c1.4,0,2.8,1.1,2.8,2.8s-1.4,2.8-2.8,2.8
		c-1.7,0-2.8-1.1-2.8-2.8C425.4,353.2,426.5,352.1,428.2,352.1z M457,339.1c3.6,0,6.7-3,6.7-6.7c0-3.6-3-6.7-6.7-6.7
		c-3.6,0-6.7,3-6.7,6.7C450.4,336.1,453.4,339.1,457,339.1z M457,330c1.4,0,2.8,1.1,2.8,2.8s-1.4,2.8-2.8,2.8
		c-1.7,0-2.8-1.1-2.8-2.8S455.6,330,457,330z"/>
</g>
</svg>
